<svg xmlns="http://www.w3.org/2000/svg" xmlns:xlink="http://www.w3.org/1999/xlink" width="100" zoomAndPan="magnify" viewBox="0 0 75 30.000001" height="40" preserveAspectRatio="xMidYMid meet" version="1.2"><defs><clipPath id="7ff443be66"><path d="M 3.925781 6.703125 L 13.609375 6.703125 L 13.609375 10.777344 L 3.925781 10.777344 Z M 3.925781 6.703125 "/></clipPath><clipPath id="36816456bd"><path d="M 4.238281 8.84375 C 4.421875 8.902344 4.617188 8.800781 4.699219 8.625 C 4.757812 8.496094 4.832031 8.367188 4.917969 8.242188 C 5.257812 7.746094 5.75 7.460938 6.234375 7.480469 C 6.992188 7.515625 7.507812 8.179688 7.796875 8.710938 C 7.15625 9.023438 6.71875 9.640625 6.71875 10.347656 C 6.71875 10.476562 6.734375 10.601562 6.761719 10.71875 C 7.382812 10.480469 8.0625 10.347656 8.769531 10.347656 C 9.476562 10.347656 10.152344 10.480469 10.777344 10.71875 C 10.804688 10.601562 10.816406 10.476562 10.816406 10.347656 C 10.816406 9.640625 10.378906 9.023438 9.738281 8.710938 C 10.027344 8.179688 10.542969 7.515625 11.300781 7.480469 C 11.785156 7.460938 12.277344 7.746094 12.617188 8.242188 C 12.703125 8.363281 12.777344 8.492188 12.835938 8.621094 C 12.914062 8.800781 13.109375 8.902344 13.296875 8.84375 C 13.511719 8.777344 13.613281 8.539062 13.523438 8.339844 C 13.445312 8.160156 13.347656 7.984375 13.234375 7.820312 C 12.746094 7.109375 12.015625 6.707031 11.269531 6.738281 C 10.1875 6.785156 9.496094 7.617188 9.109375 8.308594 C 9.046875 8.421875 8.925781 8.492188 8.792969 8.488281 C 8.785156 8.488281 8.777344 8.488281 8.769531 8.488281 C 8.757812 8.488281 8.75 8.488281 8.742188 8.488281 C 8.609375 8.492188 8.492188 8.421875 8.425781 8.308594 C 8.039062 7.617188 7.347656 6.785156 6.265625 6.738281 C 5.523438 6.707031 4.789062 7.109375 4.304688 7.820312 C 4.1875 7.988281 4.089844 8.160156 4.011719 8.335938 C 3.921875 8.535156 4.023438 8.773438 4.238281 8.84375 "/></clipPath><clipPath id="938f321591"><path d="M 1.683594 12.492188 L 6.582031 12.492188 L 6.582031 22.351562 L 1.683594 22.351562 Z M 1.683594 12.492188 "/></clipPath><clipPath id="b81b564e14"><path d="M 3.792969 15.152344 C 3.796875 14.195312 4.066406 13.300781 4.539062 12.542969 C 3.683594 13.253906 2.964844 14.160156 2.460938 15.230469 C 1.363281 17.570312 1.515625 20.179688 2.652344 22.296875 C 4.121094 22 5.492188 21.289062 6.582031 20.230469 C 5.277344 19.09375 3.789062 17.324219 3.792969 15.152344 "/></clipPath><clipPath id="3e78fdb2b1"><path d="M 10.953125 12.492188 L 15.851562 12.492188 L 15.851562 22.351562 L 10.953125 22.351562 Z M 10.953125 12.492188 "/></clipPath><clipPath id="66878d9d52"><path d="M 15.074219 15.234375 C 14.566406 14.160156 13.851562 13.253906 12.996094 12.542969 C 13.464844 13.300781 13.738281 14.195312 13.742188 15.152344 C 13.746094 17.328125 12.257812 19.097656 10.953125 20.230469 C 12.042969 21.292969 13.414062 22 14.878906 22.296875 C 16.019531 20.183594 16.171875 17.574219 15.074219 15.234375 "/></clipPath><clipPath id="3f0f4e2e63"><path d="M 4.339844 10.71875 L 13.195312 10.71875 L 13.195312 21.171875 L 4.339844 21.171875 Z M 4.339844 10.71875 "/></clipPath><clipPath id="372217c2f5"><path d="M 8.765625 17.308594 C 7.46875 17.308594 6.417969 16.257812 6.417969 14.960938 C 6.417969 13.660156 7.46875 12.609375 8.765625 12.609375 C 10.066406 12.609375 11.117188 13.664062 11.117188 14.960938 C 11.117188 16.257812 10.066406 17.308594 8.765625 17.308594 M 13.183594 15.152344 C 13.175781 12.714844 11.207031 10.738281 8.765625 10.738281 C 6.328125 10.738281 4.355469 12.714844 4.351562 15.152344 C 4.347656 18.652344 8.765625 21.121094 8.765625 21.121094 C 8.765625 21.121094 13.1875 18.652344 13.183594 15.152344 "/></clipPath><clipPath id="cd296ae65e"><path d="M 20.671875 11.726562 L 26.800781 11.726562 L 26.800781 19.117188 L 20.671875 19.117188 Z M 20.671875 11.726562 "/></clipPath><clipPath id="13ce4df32d"><path d="M 22.394531 15.960938 L 22.394531 17.738281 L 23.722656 17.738281 C 24.175781 17.738281 24.496094 17.660156 24.683594 17.5 C 24.871094 17.34375 24.964844 17.121094 24.964844 16.835938 C 24.964844 16.597656 24.875 16.390625 24.695312 16.21875 C 24.511719 16.046875 24.214844 15.960938 23.796875 15.960938 Z M 22.394531 13.03125 L 22.394531 14.644531 L 23.703125 14.644531 C 24.183594 14.644531 24.484375 14.550781 24.609375 14.363281 C 24.734375 14.171875 24.796875 13.992188 24.796875 13.820312 C 24.796875 13.632812 24.746094 13.46875 24.640625 13.335938 C 24.539062 13.199219 24.425781 13.113281 24.304688 13.082031 C 24.183594 13.046875 23.941406 13.03125 23.578125 13.03125 Z M 20.671875 11.726562 L 24.109375 11.726562 C 24.726562 11.726562 25.1875 11.800781 25.5 11.953125 C 25.808594 12.105469 26.066406 12.320312 26.269531 12.601562 C 26.46875 12.882812 26.570312 13.222656 26.570312 13.628906 C 26.570312 14.445312 26.125 14.992188 25.238281 15.265625 C 25.75 15.382812 26.136719 15.609375 26.390625 15.953125 C 26.648438 16.296875 26.777344 16.667969 26.777344 17.074219 C 26.777344 17.625 26.566406 18.101562 26.148438 18.503906 C 25.730469 18.90625 25.050781 19.105469 24.109375 19.105469 L 20.671875 19.105469 Z M 20.671875 11.726562 "/></clipPath><clipPath id="ecdadfadab"><path d="M 33.320312 9.558594 L 38.699219 9.558594 L 38.699219 19.472656 L 33.320312 19.472656 Z M 33.320312 9.558594 "/></clipPath><clipPath id="2630ea9780"><path d="M 35.957031 15.089844 C 35.253906 15.089844 34.691406 14.515625 34.691406 13.808594 C 34.695312 13.109375 35.261719 12.546875 35.964844 12.546875 C 36.671875 12.550781 37.238281 13.121094 37.234375 13.828125 C 37.230469 14.523438 36.65625 15.089844 35.957031 15.089844 M 37.796875 15.738281 C 37.714844 15.6875 37.753906 15.664062 37.792969 15.617188 C 38.316406 15.074219 38.574219 14.425781 38.523438 13.675781 C 38.457031 12.675781 37.953125 11.949219 37.0625 11.496094 C 37.007812 11.46875 36.980469 11.433594 36.96875 11.371094 C 36.921875 11.070312 36.761719 10.84375 36.511719 10.675781 C 36.445312 10.628906 36.324219 10.636719 36.3125 10.527344 C 36.308594 10.441406 36.328125 10.351562 36.351562 10.265625 C 36.367188 10.1875 36.394531 10.113281 36.429688 10.039062 C 36.511719 9.871094 36.640625 9.769531 36.839844 9.773438 C 36.90625 9.777344 36.957031 9.757812 36.957031 9.683594 C 36.953125 9.613281 36.898438 9.601562 36.835938 9.597656 C 36.640625 9.589844 36.480469 9.664062 36.359375 9.816406 C 36.257812 9.941406 36.207031 10.089844 36.171875 10.246094 C 36.152344 10.328125 36.164062 10.4375 36.117188 10.5 C 36.058594 10.574219 35.941406 10.503906 35.855469 10.535156 C 35.746094 10.574219 35.71875 10.515625 35.710938 10.417969 C 35.691406 10.210938 35.636719 10.015625 35.511719 9.84375 C 35.390625 9.671875 35.222656 9.589844 35.011719 9.597656 C 34.949219 9.601562 34.894531 9.617188 34.894531 9.6875 C 34.894531 9.761719 34.953125 9.777344 35.015625 9.773438 C 35.207031 9.769531 35.335938 9.867188 35.417969 10.03125 C 35.496094 10.183594 35.527344 10.351562 35.542969 10.519531 C 35.550781 10.59375 35.527344 10.632812 35.460938 10.671875 C 35.21875 10.824219 35.058594 11.039062 35.003906 11.324219 C 34.988281 11.410156 34.953125 11.453125 34.875 11.492188 C 33.84375 11.972656 33.257812 13.058594 33.417969 14.179688 C 33.601562 15.5 34.773438 16.457031 36.105469 16.378906 C 36.347656 16.367188 36.570312 16.417969 36.785156 16.523438 C 36.976562 16.621094 37.109375 16.773438 37.164062 16.984375 C 37.273438 17.40625 37.097656 17.789062 36.691406 17.988281 C 36.394531 18.132812 36.074219 18.164062 35.75 18.132812 C 35.109375 18.066406 34.851562 17.832031 34.71875 17.199219 C 34.703125 17.128906 34.664062 17.128906 34.613281 17.128906 L 34.03125 17.128906 C 33.839844 17.128906 33.644531 17.132812 33.453125 17.128906 C 33.378906 17.128906 33.351562 17.152344 33.351562 17.226562 C 33.363281 18.105469 33.738281 18.90625 34.757812 19.246094 C 35.457031 19.480469 36.175781 19.492188 36.890625 19.3125 C 37.457031 19.167969 37.949219 18.902344 38.300781 18.417969 C 38.96875 17.5 38.75 16.335938 37.796875 15.738281 "/></clipPath><clipPath id="6675a297e9"><path d="M 27.769531 13.625 L 32.515625 13.625 L 32.515625 19.261719 L 27.769531 19.261719 Z M 27.769531 13.625 "/></clipPath><clipPath id="299319e8f4"><path d="M 32.476562 13.644531 L 32.476562 19.105469 L 30.984375 19.105469 L 30.984375 18.175781 C 30.703125 18.871094 30.164062 19.21875 29.371094 19.21875 C 28.960938 19.21875 28.644531 19.144531 28.425781 18.992188 C 28.203125 18.835938 28.046875 18.628906 27.953125 18.363281 C 27.855469 18.097656 27.808594 17.714844 27.808594 17.214844 L 27.808594 13.644531 L 29.371094 13.644531 L 29.371094 17.214844 C 29.371094 17.703125 29.574219 17.949219 29.976562 17.949219 C 30.183594 17.949219 30.359375 17.890625 30.511719 17.773438 C 30.664062 17.65625 30.761719 17.53125 30.800781 17.398438 C 30.84375 17.265625 30.863281 17.035156 30.863281 16.710938 L 30.863281 13.644531 Z M 32.476562 13.644531 "/></clipPath><clipPath id="9f5462f2e6"><path d="M 46.726562 11.851562 L 48.425781 11.851562 L 48.425781 14.730469 L 46.726562 14.730469 Z M 42.726562 11.851562 L 44.421875 11.851562 L 44.421875 14.730469 L 42.726562 14.730469 Z M 42.726562 14.730469 L 48.425781 14.730469 L 48.425781 16.1875 L 42.726562 16.1875 Z M 42.726562 16.1875 L 44.421875 16.1875 L 44.421875 19.234375 L 42.726562 19.234375 Z M 46.726562 16.1875 L 48.425781 16.1875 L 48.425781 19.234375 L 46.726562 19.234375 Z M 46.726562 16.1875 "/></clipPath><clipPath id="d342976b7b"><path d="M 49.5 13.625 L 54.757812 13.625 L 54.757812 19.371094 L 49.5 19.371094 Z M 49.5 13.625 "/></clipPath><clipPath id="9b95f4aca6"><path d="M 52.136719 14.714844 C 51.832031 14.714844 51.601562 14.832031 51.445312 15.066406 C 51.289062 15.304688 51.214844 15.773438 51.214844 16.476562 C 51.214844 17.121094 51.289062 17.582031 51.433594 17.863281 C 51.582031 18.144531 51.8125 18.285156 52.125 18.285156 C 52.398438 18.285156 52.621094 18.167969 52.789062 17.925781 C 52.957031 17.6875 53.042969 17.230469 53.042969 16.554688 C 53.042969 15.839844 52.96875 15.351562 52.816406 15.097656 C 52.667969 14.839844 52.441406 14.710938 52.136719 14.710938 M 52.09375 13.65625 C 52.921875 13.65625 53.574219 13.929688 54.039062 14.472656 C 54.507812 15.019531 54.738281 15.699219 54.738281 16.519531 C 54.738281 17.324219 54.496094 18 54.011719 18.539062 C 53.527344 19.078125 52.882812 19.347656 52.082031 19.347656 C 51.304688 19.347656 50.679688 19.078125 50.214844 18.546875 C 49.746094 18.011719 49.515625 17.328125 49.515625 16.492188 C 49.515625 15.910156 49.621094 15.417969 49.832031 15.011719 C 50.042969 14.609375 50.332031 14.28125 50.699219 14.03125 C 51.066406 13.78125 51.53125 13.660156 52.09375 13.660156 "/></clipPath><clipPath id="e2cb02487b"><path d="M 55.144531 13.660156 L 60.078125 13.660156 L 60.078125 19.371094 L 55.144531 19.371094 Z M 55.144531 13.660156 "/></clipPath><clipPath id="3958fa31f6"><path d="M 59.84375 15.09375 L 58.671875 15.40625 C 58.535156 14.910156 58.179688 14.664062 57.605469 14.664062 C 57.066406 14.664062 56.792969 14.828125 56.792969 15.15625 C 56.792969 15.289062 56.84375 15.390625 56.941406 15.46875 C 57.042969 15.546875 57.300781 15.613281 57.71875 15.664062 C 58.34375 15.75 58.804688 15.84375 59.101562 15.949219 C 59.402344 16.058594 59.640625 16.242188 59.8125 16.496094 C 59.988281 16.753906 60.074219 17.070312 60.074219 17.445312 C 60.074219 18.007812 59.863281 18.464844 59.433594 18.816406 C 59.007812 19.171875 58.410156 19.347656 57.644531 19.347656 C 56.25 19.347656 55.421875 18.808594 55.148438 17.730469 L 56.507812 17.53125 C 56.621094 18.019531 57.023438 18.265625 57.71875 18.265625 C 57.988281 18.265625 58.210938 18.21875 58.394531 18.125 C 58.582031 18.027344 58.671875 17.898438 58.671875 17.734375 C 58.671875 17.484375 58.46875 17.332031 58.058594 17.285156 C 56.957031 17.152344 56.230469 16.941406 55.882812 16.652344 C 55.535156 16.363281 55.363281 15.96875 55.363281 15.453125 C 55.363281 14.9375 55.5625 14.507812 55.96875 14.167969 C 56.371094 13.828125 56.9375 13.660156 57.667969 13.660156 C 58.242188 13.660156 58.703125 13.773438 59.050781 14 C 59.394531 14.226562 59.660156 14.589844 59.84375 15.09375 "/></clipPath><clipPath id="659e1895ab"><path d="M 60.402344 12.035156 L 64.167969 12.035156 L 64.167969 19.371094 L 60.402344 19.371094 Z M 60.402344 12.035156 "/></clipPath><clipPath id="9e3af48448"><path d="M 62.902344 15.027344 L 62.902344 17.335938 C 62.902344 17.625 62.945312 17.816406 63.03125 17.914062 C 63.113281 18.011719 63.320312 18.0625 63.636719 18.0625 C 63.785156 18.0625 63.957031 18.054688 64.148438 18.039062 L 64.148438 19.234375 C 63.679688 19.3125 63.34375 19.351562 63.140625 19.351562 C 62.46875 19.351562 61.992188 19.222656 61.710938 18.964844 C 61.429688 18.707031 61.289062 18.242188 61.289062 17.566406 L 61.289062 15.027344 L 60.425781 15.027344 L 60.425781 13.773438 L 61.382812 13.773438 L 61.511719 12.160156 L 62.902344 12.054688 L 62.902344 13.773438 L 64.074219 13.773438 L 64.074219 15.027344 Z M 62.902344 15.027344 "/></clipPath><clipPath id="cc3a7eb8e6"><path d="M 64.589844 13.625 L 69.847656 13.625 L 69.847656 19.371094 L 64.589844 19.371094 Z M 64.589844 13.625 "/></clipPath><clipPath id="37d89bf00f"><path d="M 66.304688 15.839844 L 68.246094 15.839844 C 68.199219 15.089844 67.890625 14.714844 67.324219 14.714844 C 66.71875 14.714844 66.378906 15.089844 66.304688 15.839844 M 69.828125 16.773438 L 66.3125 16.773438 C 66.308594 16.871094 66.308594 16.957031 66.308594 17.027344 C 66.308594 17.417969 66.410156 17.710938 66.617188 17.910156 C 66.824219 18.105469 67.074219 18.207031 67.363281 18.207031 C 67.898438 18.207031 68.222656 17.917969 68.328125 17.347656 L 69.789062 17.453125 C 69.382812 18.714844 68.554688 19.347656 67.308594 19.347656 C 66.761719 19.347656 66.300781 19.238281 65.921875 19.019531 C 65.539062 18.800781 65.226562 18.484375 64.980469 18.066406 C 64.734375 17.644531 64.609375 17.144531 64.609375 16.5625 C 64.609375 15.691406 64.859375 14.992188 65.355469 14.457031 C 65.851562 13.921875 66.488281 13.65625 67.265625 13.65625 C 67.96875 13.65625 68.570312 13.90625 69.074219 14.402344 C 69.574219 14.898438 69.828125 15.6875 69.828125 16.769531 "/></clipPath><clipPath id="1f31f06330"><path d="M 70.84375 13.652344 L 73.789062 13.652344 L 73.789062 19.238281 L 70.84375 19.238281 Z M 70.84375 13.652344 "/></clipPath><clipPath id="aea6ee77b6"><path d="M 72.40625 19.234375 L 70.84375 19.234375 L 70.84375 13.773438 L 72.320312 13.773438 L 72.320312 14.789062 C 72.546875 14.03125 72.941406 13.652344 73.5 13.652344 C 73.578125 13.652344 73.675781 13.660156 73.789062 13.667969 L 73.789062 15.257812 C 73.464844 15.257812 73.207031 15.308594 73.027344 15.410156 C 72.84375 15.511719 72.695312 15.691406 72.578125 15.953125 C 72.464844 16.214844 72.40625 16.566406 72.40625 17.011719 Z M 72.40625 19.234375 "/></clipPath></defs><g id="7be45ef5af"><g clip-rule="nonzero" clip-path="url(#7ff443be66)"><g clip-rule="nonzero" clip-path="url(#36816456bd)"><path style=" stroke:none;fill-rule:nonzero;fill:#fcfcfc;fill-opacity:1;" d="M 1.210938 6.230469 L 16.324219 6.230469 L 16.324219 22.824219 L 1.210938 22.824219 Z M 1.210938 6.230469 "/></g></g><g clip-rule="nonzero" clip-path="url(#938f321591)"><g clip-rule="nonzero" clip-path="url(#b81b564e14)"><path style=" stroke:none;fill-rule:nonzero;fill:#fcfcfc;fill-opacity:1;" d="M 1.210938 6.230469 L 16.324219 6.230469 L 16.324219 22.824219 L 1.210938 22.824219 Z M 1.210938 6.230469 "/></g></g><g clip-rule="nonzero" clip-path="url(#3e78fdb2b1)"><g clip-rule="nonzero" clip-path="url(#66878d9d52)"><path style=" stroke:none;fill-rule:nonzero;fill:#fcfcfc;fill-opacity:1;" d="M 1.210938 6.230469 L 16.324219 6.230469 L 16.324219 22.824219 L 1.210938 22.824219 Z M 1.210938 6.230469 "/></g></g><g clip-rule="nonzero" clip-path="url(#3f0f4e2e63)"><g clip-rule="nonzero" clip-path="url(#372217c2f5)"><path style=" stroke:none;fill-rule:nonzero;fill:#fcfcfc;fill-opacity:1;" d="M 1.210938 6.230469 L 16.324219 6.230469 L 16.324219 22.824219 L 1.210938 22.824219 Z M 1.210938 6.230469 "/></g></g><g clip-rule="nonzero" clip-path="url(#cd296ae65e)"><g clip-rule="nonzero" clip-path="url(#13ce4df32d)"><path style=" stroke:none;fill-rule:nonzero;fill:#ffffff;fill-opacity:1;" d="M 20.671875 11.726562 L 26.777344 11.726562 L 26.777344 19.117188 L 20.671875 19.117188 Z M 20.671875 11.726562 "/></g></g><g clip-rule="nonzero" clip-path="url(#ecdadfadab)"><g clip-rule="nonzero" clip-path="url(#2630ea9780)"><path style=" stroke:none;fill-rule:nonzero;fill:#f4f9f4;fill-opacity:1;" d="M 27.304688 9.09375 L 39.210938 9.09375 L 39.210938 19.9375 L 27.304688 19.9375 Z M 27.304688 9.09375 "/></g></g><g clip-rule="nonzero" clip-path="url(#6675a297e9)"><g clip-rule="nonzero" clip-path="url(#299319e8f4)"><path style=" stroke:none;fill-rule:nonzero;fill:#ffffff;fill-opacity:1;" d="M 27.304688 9.09375 L 39.210938 9.09375 L 39.210938 19.9375 L 27.304688 19.9375 Z M 27.304688 9.09375 "/></g></g><g clip-rule="nonzero" clip-path="url(#9f5462f2e6)"><path style=" stroke:none;fill-rule:nonzero;fill:#ffffff;fill-opacity:1;" d="M 42.726562 11.851562 L 48.425781 11.851562 L 48.425781 19.246094 L 42.726562 19.246094 Z M 42.726562 11.851562 "/></g><g clip-rule="nonzero" clip-path="url(#d342976b7b)"><g clip-rule="nonzero" clip-path="url(#9b95f4aca6)"><path style=" stroke:none;fill-rule:nonzero;fill:#ffffff;fill-opacity:1;" d="M 49.011719 11.550781 L 70.335938 11.550781 L 70.335938 19.855469 L 49.011719 19.855469 Z M 49.011719 11.550781 "/></g></g><g clip-rule="nonzero" clip-path="url(#e2cb02487b)"><g clip-rule="nonzero" clip-path="url(#3958fa31f6)"><path style=" stroke:none;fill-rule:nonzero;fill:#ffffff;fill-opacity:1;" d="M 49.011719 11.550781 L 70.335938 11.550781 L 70.335938 19.855469 L 49.011719 19.855469 Z M 49.011719 11.550781 "/></g></g><g clip-rule="nonzero" clip-path="url(#659e1895ab)"><g clip-rule="nonzero" clip-path="url(#9e3af48448)"><path style=" stroke:none;fill-rule:nonzero;fill:#ffffff;fill-opacity:1;" d="M 49.011719 11.550781 L 70.335938 11.550781 L 70.335938 19.855469 L 49.011719 19.855469 Z M 49.011719 11.550781 "/></g></g><g clip-rule="nonzero" clip-path="url(#cc3a7eb8e6)"><g clip-rule="nonzero" clip-path="url(#37d89bf00f)"><path style=" stroke:none;fill-rule:nonzero;fill:#ffffff;fill-opacity:1;" d="M 49.011719 11.550781 L 70.335938 11.550781 L 70.335938 19.855469 L 49.011719 19.855469 Z M 49.011719 11.550781 "/></g></g><g clip-rule="nonzero" clip-path="url(#1f31f06330)"><g clip-rule="nonzero" clip-path="url(#aea6ee77b6)"><path style=" stroke:none;fill-rule:nonzero;fill:#ffffff;fill-opacity:1;" d="M 70.84375 13.652344 L 73.789062 13.652344 L 73.789062 19.238281 L 70.84375 19.238281 Z M 70.84375 13.652344 "/></g></g></g></svg>